# xmcd CD database file
#
# Track frame offsets:
#	150
#	25567
#	44645
#	69332
#	94585
#	112310
#	131642
#	154977
#	183275
#	203342
#	251899
#
# Disc length: 3364 seconds
#
# Revision: 2
# Processed by: cddbd v1.5.1PL0 Copyright (c) Steve Scherf et al.
# Submitted via: CDex 1.51
#
DISCID=950d220b
DTITLE=B.S.M.F - B.S.M.F Volume1
DYEAR=1999
DGENRE=Blues
TTITLE0=Life gose on without you
TTITLE1=Last dance, baby
TTITLE2=Sweet home chicago
TTITLE3=That's all right
TTITLE4=Let me lave you
TTITLE5=Confusion blues
TTITLE6=Boogie thing
TTITLE7=Double trouble
TTITLE8=Low down dirty shame
TTITLE9=Move on up
TTITLE10=data track
EXTD=YEAR: 1999
EXTT0=
EXTT1=
EXTT2=
EXTT3=
EXTT4=
EXTT5=
EXTT6=
EXTT7=
EXTT8=
EXTT9=
EXTT10=
PLAYORDER=
